<mxfile host="app.diagrams.net" modified="2023-04-10T03:40:53.856Z" agent="Mozilla/5.0 (X11; Linux x86_64) AppleWebKit/537.36 (KHTML, like Gecko) Chrome/111.0.0.0 Safari/537.36" version="21.1.5" etag="TrVdyexlJ83jTgAa9gK0" type="github">
  <diagram name="Page-1" id="_W4iAKK5p5PMeJgZvCfg">
    <mxGraphModel>
      <root>
        <mxCell id="0" />
        <mxCell id="1" parent="0" />
      </root>
    </mxGraphModel>
  </diagram>
</mxfile>
